<mxfile host="app.diagrams.net" modified="2023-03-30T17:40:26.053Z" agent="5.0 (Windows NT 10.0; Win64; x64) AppleWebKit/537.36 (KHTML, like Gecko) Chrome/111.0.0.0 Safari/537.36" etag="Pvx33c7c5PWo0d-P7mD5" version="21.0.6" type="github">
  <diagram id="NkujWcR8n7Ybek51XI4w" name="Sayfa -1">
    <mxGraphModel dx="1500" dy="1173" grid="1" gridSize="10" guides="1" tooltips="1" connect="1" arrows="1" fold="1" page="0" pageScale="1" pageWidth="1654" pageHeight="2336" math="0" shadow="0">
      <root>
        <mxCell id="0" />
        <mxCell id="1" parent="0" />
        <mxCell id="Zs0G0rEq7wxW95QwhWQh-3" style="edgeStyle=orthogonalEdgeStyle;rounded=0;orthogonalLoop=1;jettySize=auto;html=1;" parent="1" source="Zs0G0rEq7wxW95QwhWQh-2" target="Zs0G0rEq7wxW95QwhWQh-4" edge="1">
          <mxGeometry relative="1" as="geometry">
            <mxPoint x="620" y="150" as="targetPoint" />
            <Array as="points">
              <mxPoint x="580" y="150" />
              <mxPoint x="580" y="150" />
            </Array>
          </mxGeometry>
        </mxCell>
        <mxCell id="Zs0G0rEq7wxW95QwhWQh-5" style="edgeStyle=orthogonalEdgeStyle;rounded=0;orthogonalLoop=1;jettySize=auto;html=1;" parent="1" source="Zs0G0rEq7wxW95QwhWQh-2" target="Zs0G0rEq7wxW95QwhWQh-6" edge="1">
          <mxGeometry relative="1" as="geometry">
            <mxPoint x="660" y="230" as="targetPoint" />
            <Array as="points">
              <mxPoint x="610" y="260" />
              <mxPoint x="610" y="260" />
            </Array>
          </mxGeometry>
        </mxCell>
        <mxCell id="Zs0G0rEq7wxW95QwhWQh-2" value="login page" style="rounded=0;whiteSpace=wrap;html=1;" parent="1" vertex="1">
          <mxGeometry x="410" y="150" width="120" height="110" as="geometry" />
        </mxCell>
        <mxCell id="Zs0G0rEq7wxW95QwhWQh-8" style="edgeStyle=orthogonalEdgeStyle;rounded=0;orthogonalLoop=1;jettySize=auto;html=1;" parent="1" source="Zs0G0rEq7wxW95QwhWQh-4" target="Zs0G0rEq7wxW95QwhWQh-7" edge="1">
          <mxGeometry relative="1" as="geometry">
            <Array as="points">
              <mxPoint x="720" y="20" />
            </Array>
          </mxGeometry>
        </mxCell>
        <mxCell id="Zs0G0rEq7wxW95QwhWQh-4" value="spor salonu sahibi" style="ellipse;whiteSpace=wrap;html=1;" parent="1" vertex="1">
          <mxGeometry x="660" y="110" width="120" height="80" as="geometry" />
        </mxCell>
        <mxCell id="Zs0G0rEq7wxW95QwhWQh-14" style="edgeStyle=orthogonalEdgeStyle;rounded=0;orthogonalLoop=1;jettySize=auto;html=1;" parent="1" source="Zs0G0rEq7wxW95QwhWQh-6" target="Zs0G0rEq7wxW95QwhWQh-15" edge="1">
          <mxGeometry relative="1" as="geometry">
            <mxPoint x="850" y="259.9999999999998" as="targetPoint" />
          </mxGeometry>
        </mxCell>
        <mxCell id="Zs0G0rEq7wxW95QwhWQh-6" value="antrenör" style="ellipse;whiteSpace=wrap;html=1;" parent="1" vertex="1">
          <mxGeometry x="660" y="220" width="120" height="80" as="geometry" />
        </mxCell>
        <mxCell id="Zs0G0rEq7wxW95QwhWQh-7" value="Personel kayıt&lt;br&gt;Son rapor yolla&amp;nbsp;" style="rounded=0;whiteSpace=wrap;html=1;" parent="1" vertex="1">
          <mxGeometry x="850" y="-50" width="180" height="130" as="geometry" />
        </mxCell>
        <mxCell id="Zs0G0rEq7wxW95QwhWQh-9" value="" style="endArrow=classic;html=1;rounded=0;exitX=0.433;exitY=0.993;exitDx=0;exitDy=0;exitPerimeter=0;entryX=0;entryY=0.5;entryDx=0;entryDy=0;" parent="1" source="Zs0G0rEq7wxW95QwhWQh-2" target="Zs0G0rEq7wxW95QwhWQh-10" edge="1">
          <mxGeometry width="50" height="50" relative="1" as="geometry">
            <mxPoint x="600" y="260" as="sourcePoint" />
            <mxPoint x="660" y="360" as="targetPoint" />
            <Array as="points">
              <mxPoint x="462" y="360" />
              <mxPoint x="462" y="420" />
            </Array>
          </mxGeometry>
        </mxCell>
        <mxCell id="Zs0G0rEq7wxW95QwhWQh-13" style="edgeStyle=orthogonalEdgeStyle;rounded=0;orthogonalLoop=1;jettySize=auto;html=1;entryX=-0.002;entryY=0.563;entryDx=0;entryDy=0;entryPerimeter=0;" parent="1" source="Zs0G0rEq7wxW95QwhWQh-10" target="Zs0G0rEq7wxW95QwhWQh-12" edge="1">
          <mxGeometry relative="1" as="geometry">
            <Array as="points">
              <mxPoint x="720" y="539" />
            </Array>
          </mxGeometry>
        </mxCell>
        <mxCell id="Zs0G0rEq7wxW95QwhWQh-10" value="sekreter" style="ellipse;whiteSpace=wrap;html=1;" parent="1" vertex="1">
          <mxGeometry x="660" y="380" width="120" height="80" as="geometry" />
        </mxCell>
        <mxCell id="Zs0G0rEq7wxW95QwhWQh-12" value="Üye kayıt&lt;br&gt;Abonelik işlemleri&lt;br&gt;Birebir rezervasyon&lt;br&gt;Satış raporlama&lt;br&gt;Şikayet/öneri&amp;nbsp;" style="rounded=0;whiteSpace=wrap;html=1;" parent="1" vertex="1">
          <mxGeometry x="890" y="460" width="180" height="140" as="geometry" />
        </mxCell>
        <mxCell id="Zs0G0rEq7wxW95QwhWQh-15" value="Spor Programı oluşturma&lt;br&gt;Randevu oluştur&lt;br&gt;Şikayet/öneri&lt;br&gt;Arıza girdisi&lt;br&gt;Kullanıcı bilgisi gir" style="whiteSpace=wrap;html=1;aspect=fixed;" parent="1" vertex="1">
          <mxGeometry x="890" y="190" width="140" height="140" as="geometry" />
        </mxCell>
        <mxCell id="Zs0G0rEq7wxW95QwhWQh-16" value="Müşteri" style="swimlane;fontStyle=0;childLayout=stackLayout;horizontal=1;startSize=26;fillColor=none;horizontalStack=0;resizeParent=1;resizeParentMax=0;resizeLast=0;collapsible=1;marginBottom=0;" parent="1" vertex="1">
          <mxGeometry x="10" y="690" width="150" height="312" as="geometry">
            <mxRectangle x="10" y="690" width="70" height="26" as="alternateBounds" />
          </mxGeometry>
        </mxCell>
        <mxCell id="Zs0G0rEq7wxW95QwhWQh-17" value="+ ID: Str/int" style="text;strokeColor=none;fillColor=none;align=left;verticalAlign=top;spacingLeft=4;spacingRight=4;overflow=hidden;rotatable=0;points=[[0,0.5],[1,0.5]];portConstraint=eastwest;" parent="Zs0G0rEq7wxW95QwhWQh-16" vertex="1">
          <mxGeometry y="26" width="150" height="26" as="geometry" />
        </mxCell>
        <mxCell id="Zs0G0rEq7wxW95QwhWQh-43" value="+ Name: Str" style="text;strokeColor=none;fillColor=none;align=left;verticalAlign=top;spacingLeft=4;spacingRight=4;overflow=hidden;rotatable=0;points=[[0,0.5],[1,0.5]];portConstraint=eastwest;" parent="Zs0G0rEq7wxW95QwhWQh-16" vertex="1">
          <mxGeometry y="52" width="150" height="26" as="geometry" />
        </mxCell>
        <mxCell id="Zs0G0rEq7wxW95QwhWQh-18" value="+ Surname: Str" style="text;strokeColor=none;fillColor=none;align=left;verticalAlign=top;spacingLeft=4;spacingRight=4;overflow=hidden;rotatable=0;points=[[0,0.5],[1,0.5]];portConstraint=eastwest;" parent="Zs0G0rEq7wxW95QwhWQh-16" vertex="1">
          <mxGeometry y="78" width="150" height="26" as="geometry" />
        </mxCell>
        <mxCell id="Zs0G0rEq7wxW95QwhWQh-27" value="+ Tel no: str" style="text;strokeColor=none;fillColor=none;align=left;verticalAlign=top;spacingLeft=4;spacingRight=4;overflow=hidden;rotatable=0;points=[[0,0.5],[1,0.5]];portConstraint=eastwest;" parent="Zs0G0rEq7wxW95QwhWQh-16" vertex="1">
          <mxGeometry y="104" width="150" height="26" as="geometry" />
        </mxCell>
        <mxCell id="Zs0G0rEq7wxW95QwhWQh-19" value="+ Age: int" style="text;strokeColor=none;fillColor=none;align=left;verticalAlign=top;spacingLeft=4;spacingRight=4;overflow=hidden;rotatable=0;points=[[0,0.5],[1,0.5]];portConstraint=eastwest;" parent="Zs0G0rEq7wxW95QwhWQh-16" vertex="1">
          <mxGeometry y="130" width="150" height="26" as="geometry" />
        </mxCell>
        <mxCell id="Zs0G0rEq7wxW95QwhWQh-20" value="+ Cinsiyet: bool" style="text;strokeColor=none;fillColor=none;align=left;verticalAlign=top;spacingLeft=4;spacingRight=4;overflow=hidden;rotatable=0;points=[[0,0.5],[1,0.5]];portConstraint=eastwest;" parent="Zs0G0rEq7wxW95QwhWQh-16" vertex="1">
          <mxGeometry y="156" width="150" height="26" as="geometry" />
        </mxCell>
        <mxCell id="Zs0G0rEq7wxW95QwhWQh-21" value="+ Üyelik Tarihi: date" style="text;strokeColor=none;fillColor=none;align=left;verticalAlign=top;spacingLeft=4;spacingRight=4;overflow=hidden;rotatable=0;points=[[0,0.5],[1,0.5]];portConstraint=eastwest;" parent="Zs0G0rEq7wxW95QwhWQh-16" vertex="1">
          <mxGeometry y="182" width="150" height="26" as="geometry" />
        </mxCell>
        <mxCell id="Zs0G0rEq7wxW95QwhWQh-22" value="+ Abonelik bitiş: int" style="text;strokeColor=none;fillColor=none;align=left;verticalAlign=top;spacingLeft=4;spacingRight=4;overflow=hidden;rotatable=0;points=[[0,0.5],[1,0.5]];portConstraint=eastwest;" parent="Zs0G0rEq7wxW95QwhWQh-16" vertex="1">
          <mxGeometry y="208" width="150" height="26" as="geometry" />
        </mxCell>
        <mxCell id="Zs0G0rEq7wxW95QwhWQh-23" value="+ kan grubu: str" style="text;strokeColor=none;fillColor=none;align=left;verticalAlign=top;spacingLeft=4;spacingRight=4;overflow=hidden;rotatable=0;points=[[0,0.5],[1,0.5]];portConstraint=eastwest;" parent="Zs0G0rEq7wxW95QwhWQh-16" vertex="1">
          <mxGeometry y="234" width="150" height="26" as="geometry" />
        </mxCell>
        <mxCell id="Zs0G0rEq7wxW95QwhWQh-25" value="+ acil durum iletişim: str" style="text;strokeColor=none;fillColor=none;align=left;verticalAlign=top;spacingLeft=4;spacingRight=4;overflow=hidden;rotatable=0;points=[[0,0.5],[1,0.5]];portConstraint=eastwest;" parent="Zs0G0rEq7wxW95QwhWQh-16" vertex="1">
          <mxGeometry y="260" width="150" height="26" as="geometry" />
        </mxCell>
        <mxCell id="Zs0G0rEq7wxW95QwhWQh-26" value="+ ölçüler: str" style="text;strokeColor=none;fillColor=none;align=left;verticalAlign=top;spacingLeft=4;spacingRight=4;overflow=hidden;rotatable=0;points=[[0,0.5],[1,0.5]];portConstraint=eastwest;" parent="Zs0G0rEq7wxW95QwhWQh-16" vertex="1">
          <mxGeometry y="286" width="150" height="26" as="geometry" />
        </mxCell>
        <mxCell id="Zs0G0rEq7wxW95QwhWQh-29" value="Antrenör" style="swimlane;fontStyle=0;childLayout=stackLayout;horizontal=1;startSize=26;fillColor=none;horizontalStack=0;resizeParent=1;resizeParentMax=0;resizeLast=0;collapsible=1;marginBottom=0;" parent="1" vertex="1">
          <mxGeometry x="220" y="690" width="150" height="234" as="geometry">
            <mxRectangle x="10" y="690" width="70" height="26" as="alternateBounds" />
          </mxGeometry>
        </mxCell>
        <mxCell id="Zs0G0rEq7wxW95QwhWQh-30" value="+ Name: Str" style="text;strokeColor=none;fillColor=none;align=left;verticalAlign=top;spacingLeft=4;spacingRight=4;overflow=hidden;rotatable=0;points=[[0,0.5],[1,0.5]];portConstraint=eastwest;" parent="Zs0G0rEq7wxW95QwhWQh-29" vertex="1">
          <mxGeometry y="26" width="150" height="26" as="geometry" />
        </mxCell>
        <mxCell id="Zs0G0rEq7wxW95QwhWQh-31" value="+ Surname: Str" style="text;strokeColor=none;fillColor=none;align=left;verticalAlign=top;spacingLeft=4;spacingRight=4;overflow=hidden;rotatable=0;points=[[0,0.5],[1,0.5]];portConstraint=eastwest;" parent="Zs0G0rEq7wxW95QwhWQh-29" vertex="1">
          <mxGeometry y="52" width="150" height="26" as="geometry" />
        </mxCell>
        <mxCell id="Zs0G0rEq7wxW95QwhWQh-32" value="+ Tel no: str" style="text;strokeColor=none;fillColor=none;align=left;verticalAlign=top;spacingLeft=4;spacingRight=4;overflow=hidden;rotatable=0;points=[[0,0.5],[1,0.5]];portConstraint=eastwest;" parent="Zs0G0rEq7wxW95QwhWQh-29" vertex="1">
          <mxGeometry y="78" width="150" height="26" as="geometry" />
        </mxCell>
        <mxCell id="Zs0G0rEq7wxW95QwhWQh-33" value="+ Age: int" style="text;strokeColor=none;fillColor=none;align=left;verticalAlign=top;spacingLeft=4;spacingRight=4;overflow=hidden;rotatable=0;points=[[0,0.5],[1,0.5]];portConstraint=eastwest;" parent="Zs0G0rEq7wxW95QwhWQh-29" vertex="1">
          <mxGeometry y="104" width="150" height="26" as="geometry" />
        </mxCell>
        <mxCell id="Zs0G0rEq7wxW95QwhWQh-34" value="+ Cinsiyet: bool" style="text;strokeColor=none;fillColor=none;align=left;verticalAlign=top;spacingLeft=4;spacingRight=4;overflow=hidden;rotatable=0;points=[[0,0.5],[1,0.5]];portConstraint=eastwest;" parent="Zs0G0rEq7wxW95QwhWQh-29" vertex="1">
          <mxGeometry y="130" width="150" height="26" as="geometry" />
        </mxCell>
        <mxCell id="Zs0G0rEq7wxW95QwhWQh-37" value="+ kan grubu: str" style="text;strokeColor=none;fillColor=none;align=left;verticalAlign=top;spacingLeft=4;spacingRight=4;overflow=hidden;rotatable=0;points=[[0,0.5],[1,0.5]];portConstraint=eastwest;" parent="Zs0G0rEq7wxW95QwhWQh-29" vertex="1">
          <mxGeometry y="156" width="150" height="26" as="geometry" />
        </mxCell>
        <mxCell id="Zs0G0rEq7wxW95QwhWQh-40" value="+ maas: double" style="text;strokeColor=none;fillColor=none;align=left;verticalAlign=top;spacingLeft=4;spacingRight=4;overflow=hidden;rotatable=0;points=[[0,0.5],[1,0.5]];portConstraint=eastwest;" parent="Zs0G0rEq7wxW95QwhWQh-29" vertex="1">
          <mxGeometry y="182" width="150" height="26" as="geometry" />
        </mxCell>
        <mxCell id="Zs0G0rEq7wxW95QwhWQh-41" value="+ adres: str" style="text;strokeColor=none;fillColor=none;align=left;verticalAlign=top;spacingLeft=4;spacingRight=4;overflow=hidden;rotatable=0;points=[[0,0.5],[1,0.5]];portConstraint=eastwest;" parent="Zs0G0rEq7wxW95QwhWQh-29" vertex="1">
          <mxGeometry y="208" width="150" height="26" as="geometry" />
        </mxCell>
        <mxCell id="Zs0G0rEq7wxW95QwhWQh-44" value="Sekreter" style="swimlane;fontStyle=0;childLayout=stackLayout;horizontal=1;startSize=26;fillColor=none;horizontalStack=0;resizeParent=1;resizeParentMax=0;resizeLast=0;collapsible=1;marginBottom=0;" parent="1" vertex="1">
          <mxGeometry x="430" y="690" width="150" height="208" as="geometry">
            <mxRectangle x="10" y="690" width="70" height="26" as="alternateBounds" />
          </mxGeometry>
        </mxCell>
        <mxCell id="Zs0G0rEq7wxW95QwhWQh-45" value="+ Name: Str" style="text;strokeColor=none;fillColor=none;align=left;verticalAlign=top;spacingLeft=4;spacingRight=4;overflow=hidden;rotatable=0;points=[[0,0.5],[1,0.5]];portConstraint=eastwest;" parent="Zs0G0rEq7wxW95QwhWQh-44" vertex="1">
          <mxGeometry y="26" width="150" height="26" as="geometry" />
        </mxCell>
        <mxCell id="Zs0G0rEq7wxW95QwhWQh-46" value="+ Surname: Str" style="text;strokeColor=none;fillColor=none;align=left;verticalAlign=top;spacingLeft=4;spacingRight=4;overflow=hidden;rotatable=0;points=[[0,0.5],[1,0.5]];portConstraint=eastwest;" parent="Zs0G0rEq7wxW95QwhWQh-44" vertex="1">
          <mxGeometry y="52" width="150" height="26" as="geometry" />
        </mxCell>
        <mxCell id="Zs0G0rEq7wxW95QwhWQh-47" value="+ Tel no: str" style="text;strokeColor=none;fillColor=none;align=left;verticalAlign=top;spacingLeft=4;spacingRight=4;overflow=hidden;rotatable=0;points=[[0,0.5],[1,0.5]];portConstraint=eastwest;" parent="Zs0G0rEq7wxW95QwhWQh-44" vertex="1">
          <mxGeometry y="78" width="150" height="26" as="geometry" />
        </mxCell>
        <mxCell id="Zs0G0rEq7wxW95QwhWQh-48" value="+ Age: int" style="text;strokeColor=none;fillColor=none;align=left;verticalAlign=top;spacingLeft=4;spacingRight=4;overflow=hidden;rotatable=0;points=[[0,0.5],[1,0.5]];portConstraint=eastwest;" parent="Zs0G0rEq7wxW95QwhWQh-44" vertex="1">
          <mxGeometry y="104" width="150" height="26" as="geometry" />
        </mxCell>
        <mxCell id="Zs0G0rEq7wxW95QwhWQh-49" value="+ Cinsiyet: bool" style="text;strokeColor=#9673a6;fillColor=#e1d5e7;align=left;verticalAlign=top;spacingLeft=4;spacingRight=4;overflow=hidden;rotatable=0;points=[[0,0.5],[1,0.5]];portConstraint=eastwest;" parent="Zs0G0rEq7wxW95QwhWQh-44" vertex="1">
          <mxGeometry y="130" width="150" height="26" as="geometry" />
        </mxCell>
        <mxCell id="Zs0G0rEq7wxW95QwhWQh-51" value="+ maas: double" style="text;strokeColor=none;fillColor=none;align=left;verticalAlign=top;spacingLeft=4;spacingRight=4;overflow=hidden;rotatable=0;points=[[0,0.5],[1,0.5]];portConstraint=eastwest;" parent="Zs0G0rEq7wxW95QwhWQh-44" vertex="1">
          <mxGeometry y="156" width="150" height="26" as="geometry" />
        </mxCell>
        <mxCell id="Zs0G0rEq7wxW95QwhWQh-52" value="+ adres: str" style="text;strokeColor=none;fillColor=none;align=left;verticalAlign=top;spacingLeft=4;spacingRight=4;overflow=hidden;rotatable=0;points=[[0,0.5],[1,0.5]];portConstraint=eastwest;" parent="Zs0G0rEq7wxW95QwhWQh-44" vertex="1">
          <mxGeometry y="182" width="150" height="26" as="geometry" />
        </mxCell>
        <mxCell id="Zs0G0rEq7wxW95QwhWQh-54" value="Hareketler" style="swimlane;fontStyle=0;childLayout=stackLayout;horizontal=1;startSize=26;fillColor=none;horizontalStack=0;resizeParent=1;resizeParentMax=0;resizeLast=0;collapsible=1;marginBottom=0;" parent="1" vertex="1">
          <mxGeometry x="620" y="690" width="150" height="104" as="geometry">
            <mxRectangle x="10" y="690" width="70" height="26" as="alternateBounds" />
          </mxGeometry>
        </mxCell>
        <mxCell id="Zs0G0rEq7wxW95QwhWQh-55" value="+ Name: Str" style="text;strokeColor=none;fillColor=none;align=left;verticalAlign=top;spacingLeft=4;spacingRight=4;overflow=hidden;rotatable=0;points=[[0,0.5],[1,0.5]];portConstraint=eastwest;" parent="Zs0G0rEq7wxW95QwhWQh-54" vertex="1">
          <mxGeometry y="26" width="150" height="26" as="geometry" />
        </mxCell>
        <mxCell id="Zs0G0rEq7wxW95QwhWQh-61" value="+ tekrar: int" style="text;strokeColor=none;fillColor=none;align=left;verticalAlign=top;spacingLeft=4;spacingRight=4;overflow=hidden;rotatable=0;points=[[0,0.5],[1,0.5]];portConstraint=eastwest;" parent="Zs0G0rEq7wxW95QwhWQh-54" vertex="1">
          <mxGeometry y="52" width="150" height="26" as="geometry" />
        </mxCell>
        <mxCell id="Zs0G0rEq7wxW95QwhWQh-66" value="+ image path: str url path" style="text;strokeColor=none;fillColor=none;align=left;verticalAlign=top;spacingLeft=4;spacingRight=4;overflow=hidden;rotatable=0;points=[[0,0.5],[1,0.5]];portConstraint=eastwest;" parent="Zs0G0rEq7wxW95QwhWQh-54" vertex="1">
          <mxGeometry y="78" width="150" height="26" as="geometry" />
        </mxCell>
        <mxCell id="Zs0G0rEq7wxW95QwhWQh-62" value="" style="whiteSpace=wrap;html=1;aspect=fixed;" parent="1" vertex="1">
          <mxGeometry x="390" y="-290" width="80" height="80" as="geometry" />
        </mxCell>
        <mxCell id="Zs0G0rEq7wxW95QwhWQh-63" value="" style="whiteSpace=wrap;html=1;aspect=fixed;" parent="1" vertex="1">
          <mxGeometry x="390" y="-190" width="80" height="80" as="geometry" />
        </mxCell>
        <mxCell id="Zs0G0rEq7wxW95QwhWQh-64" value="görsel" style="whiteSpace=wrap;html=1;aspect=fixed;" parent="1" vertex="1">
          <mxGeometry x="600" y="-290" width="80" height="80" as="geometry" />
        </mxCell>
        <mxCell id="Zs0G0rEq7wxW95QwhWQh-65" value="" style="whiteSpace=wrap;html=1;aspect=fixed;" parent="1" vertex="1">
          <mxGeometry x="495" y="-290" width="80" height="80" as="geometry" />
        </mxCell>
        <mxCell id="Zs0G0rEq7wxW95QwhWQh-67" value="özel ders" style="swimlane;fontStyle=0;childLayout=stackLayout;horizontal=1;startSize=26;fillColor=none;horizontalStack=0;resizeParent=1;resizeParentMax=0;resizeLast=0;collapsible=1;marginBottom=0;" parent="1" vertex="1">
          <mxGeometry x="810" y="690" width="150" height="156" as="geometry">
            <mxRectangle x="10" y="690" width="70" height="26" as="alternateBounds" />
          </mxGeometry>
        </mxCell>
        <mxCell id="Zs0G0rEq7wxW95QwhWQh-68" value="+ Name: Str" style="text;strokeColor=none;fillColor=none;align=left;verticalAlign=top;spacingLeft=4;spacingRight=4;overflow=hidden;rotatable=0;points=[[0,0.5],[1,0.5]];portConstraint=eastwest;" parent="Zs0G0rEq7wxW95QwhWQh-67" vertex="1">
          <mxGeometry y="26" width="150" height="26" as="geometry" />
        </mxCell>
        <mxCell id="Zs0G0rEq7wxW95QwhWQh-69" value="+ saat: string" style="text;strokeColor=none;fillColor=none;align=left;verticalAlign=top;spacingLeft=4;spacingRight=4;overflow=hidden;rotatable=0;points=[[0,0.5],[1,0.5]];portConstraint=eastwest;" parent="Zs0G0rEq7wxW95QwhWQh-67" vertex="1">
          <mxGeometry y="52" width="150" height="26" as="geometry" />
        </mxCell>
        <mxCell id="Zs0G0rEq7wxW95QwhWQh-72" value="+ süre: int" style="text;strokeColor=none;fillColor=none;align=left;verticalAlign=top;spacingLeft=4;spacingRight=4;overflow=hidden;rotatable=0;points=[[0,0.5],[1,0.5]];portConstraint=eastwest;" parent="Zs0G0rEq7wxW95QwhWQh-67" vertex="1">
          <mxGeometry y="78" width="150" height="26" as="geometry" />
        </mxCell>
        <mxCell id="Zs0G0rEq7wxW95QwhWQh-71" value="+ kapasite: int" style="text;strokeColor=none;fillColor=none;align=left;verticalAlign=top;spacingLeft=4;spacingRight=4;overflow=hidden;rotatable=0;points=[[0,0.5],[1,0.5]];portConstraint=eastwest;" parent="Zs0G0rEq7wxW95QwhWQh-67" vertex="1">
          <mxGeometry y="104" width="150" height="26" as="geometry" />
        </mxCell>
        <mxCell id="Zs0G0rEq7wxW95QwhWQh-73" value="+ image path: str url path" style="text;strokeColor=none;fillColor=none;align=left;verticalAlign=top;spacingLeft=4;spacingRight=4;overflow=hidden;rotatable=0;points=[[0,0.5],[1,0.5]];portConstraint=eastwest;" parent="Zs0G0rEq7wxW95QwhWQh-67" vertex="1">
          <mxGeometry y="130" width="150" height="26" as="geometry" />
        </mxCell>
        <mxCell id="Zs0G0rEq7wxW95QwhWQh-74" value="" style="rounded=1;whiteSpace=wrap;html=1;" parent="1" vertex="1">
          <mxGeometry x="840" y="-290" width="180" height="60" as="geometry" />
        </mxCell>
        <mxCell id="Zs0G0rEq7wxW95QwhWQh-75" value="görsel" style="rounded=1;whiteSpace=wrap;html=1;" parent="1" vertex="1">
          <mxGeometry x="840" y="-290" width="50" height="60" as="geometry" />
        </mxCell>
        <mxCell id="Zs0G0rEq7wxW95QwhWQh-76" style="edgeStyle=orthogonalEdgeStyle;rounded=0;orthogonalLoop=1;jettySize=auto;html=1;" parent="1" source="Zs0G0rEq7wxW95QwhWQh-26" edge="1">
          <mxGeometry relative="1" as="geometry">
            <mxPoint x="230" y="1049.9999999999998" as="targetPoint" />
          </mxGeometry>
        </mxCell>
        <mxCell id="Zs0G0rEq7wxW95QwhWQh-77" value="Ölçü" style="swimlane;fontStyle=0;childLayout=stackLayout;horizontal=1;startSize=26;fillColor=none;horizontalStack=0;resizeParent=1;resizeParentMax=0;resizeLast=0;collapsible=1;marginBottom=0;" parent="1" vertex="1">
          <mxGeometry x="160" y="1050" width="150" height="78" as="geometry">
            <mxRectangle x="10" y="690" width="70" height="26" as="alternateBounds" />
          </mxGeometry>
        </mxCell>
        <mxCell id="Zs0G0rEq7wxW95QwhWQh-78" value="+ Name: Str" style="text;strokeColor=none;fillColor=none;align=left;verticalAlign=top;spacingLeft=4;spacingRight=4;overflow=hidden;rotatable=0;points=[[0,0.5],[1,0.5]];portConstraint=eastwest;" parent="Zs0G0rEq7wxW95QwhWQh-77" vertex="1">
          <mxGeometry y="26" width="150" height="26" as="geometry" />
        </mxCell>
        <mxCell id="Zs0G0rEq7wxW95QwhWQh-79" value="+ uzunluk: int" style="text;strokeColor=none;fillColor=none;align=left;verticalAlign=top;spacingLeft=4;spacingRight=4;overflow=hidden;rotatable=0;points=[[0,0.5],[1,0.5]];portConstraint=eastwest;" parent="Zs0G0rEq7wxW95QwhWQh-77" vertex="1">
          <mxGeometry y="52" width="150" height="26" as="geometry" />
        </mxCell>
        <mxCell id="Zs0G0rEq7wxW95QwhWQh-81" value="" style="whiteSpace=wrap;html=1;aspect=fixed;" parent="1" vertex="1">
          <mxGeometry x="495" y="-190" width="80" height="80" as="geometry" />
        </mxCell>
        <mxCell id="Zs0G0rEq7wxW95QwhWQh-82" value="" style="whiteSpace=wrap;html=1;aspect=fixed;" parent="1" vertex="1">
          <mxGeometry x="600" y="-190" width="80" height="80" as="geometry" />
        </mxCell>
        <mxCell id="Zs0G0rEq7wxW95QwhWQh-85" value="" style="rounded=1;whiteSpace=wrap;html=1;" parent="1" vertex="1">
          <mxGeometry x="840" y="-200" width="180" height="60" as="geometry" />
        </mxCell>
        <mxCell id="Zs0G0rEq7wxW95QwhWQh-86" value="görsel" style="rounded=1;whiteSpace=wrap;html=1;" parent="1" vertex="1">
          <mxGeometry x="840" y="-200" width="50" height="60" as="geometry" />
        </mxCell>
        <mxCell id="Zs0G0rEq7wxW95QwhWQh-87" value="program" style="text;align=center;fontStyle=1;verticalAlign=middle;spacingLeft=3;spacingRight=3;strokeColor=none;rotatable=0;points=[[0,0.5],[1,0.5]];portConstraint=eastwest;" parent="1" vertex="1">
          <mxGeometry x="495" y="-350" width="80" height="26" as="geometry" />
        </mxCell>
        <mxCell id="Zs0G0rEq7wxW95QwhWQh-88" value="randevu" style="text;align=center;fontStyle=1;verticalAlign=middle;spacingLeft=3;spacingRight=3;strokeColor=none;rotatable=0;points=[[0,0.5],[1,0.5]];portConstraint=eastwest;" parent="1" vertex="1">
          <mxGeometry x="880" y="-340" width="80" height="26" as="geometry" />
        </mxCell>
      </root>
    </mxGraphModel>
  </diagram>
</mxfile>
